            <svg class="w-20 h-20 text-black" xmlns:inkscape="http://www.inkscape.org/namespaces/inkscape" xmlns:sodipodi="http://sodipodi.sourceforge.net/DTD/sodipodi-0.dtd" xmlns="http://www.w3.org/2000/svg" xmlns:svg="http://www.w3.org/2000/svg" width="131mm" height="127mm" viewBox="0 0 131 127" version="1.1" id="svg1" xml:space="preserve" inkscape:export-filename="bitmap.svg" inkscape:export-xdpi="96" inkscape:export-ydpi="96" inkscape:version="1.3.2 (091e20e, 2023-11-25, custom)" sodipodi:docname="brunch.svg"><sodipodi:namedview id="namedview1" pagecolor="#ffffff" bordercolor="#000000" borderopacity="0.25" inkscape:showpageshadow="2" inkscape:pageopacity="0.0" inkscape:pagecheckerboard="0" inkscape:deskcolor="#d1d1d1" inkscape:document-units="mm" inkscape:zoom="0.35055065" inkscape:cx="-550.56239" inkscape:cy="87.005973" inkscape:window-width="1920" inkscape:window-height="1001" inkscape:window-x="-9" inkscape:window-y="-9" inkscape:window-maximized="1" inkscape:current-layer="layer1"/><defs id="defs1"/><g inkscape:label="Capa 1" inkscape:groupmode="layer" id="layer1"><path style="fill:#000000" d="m 9.5520674,115.48468 -0.591551,-0.47901 v -0.76177 -0.76178 l 0.591551,-0.47901 0.5915506,-0.47901 h 2.730239 2.73024 l 3.856661,-2.3151 3.856662,-2.3151 -0.06778,-18.756241 -0.06778,-18.75623 -1.058333,-0.3126 C 16.567765,68.427779 12.112254,63.421969 10.990905,57.561199 L 10.614161,55.59214 V 34.97792 14.3637 l 0.529167,-0.52917 0.529167,-0.52916 h 16.133483 16.133486 l 0.41184,0.62854 0.41184,0.62855 -0.075,21.66259 -0.075,21.662599 -0.71294,1.95256 c -1.7071,4.67531 -5.38037,8.37538 -9.873212,9.94526 l -1.849267,0.64616 -0.06128,18.73113 -0.06128,18.731141 3.911329,2.3151 3.91133,2.3151 h 4.84733 4.84732 l -0.43792,-0.59531 c -0.24086,-0.32742 -0.80539,-1.34587 -1.25451,-2.26322 l -0.81659,-1.6679 -0.13421,-1.672 -0.13421,-1.672 0.5627,-0.5627 0.5627,-0.5627 h 4.89479 4.894788 v -4.987951 -4.98796 l 0.60059,-0.89902 c 0.33032,-0.49447 1.01493,-1.1072 1.52135,-1.36164 l 0.92077,-0.46261 2.05052,-4.1e-4 2.05052,-4.1e-4 v -7.54062 -7.54063 l 0.52916,-0.52916 c 0.29105,-0.29105 0.82683,-0.52917 1.19063,-0.52917 0.3638,0 0.89958,0.23812 1.19062,0.52917 l 0.52917,0.52916 v 4.93602 4.93601 l 1.11386,-1.10283 c 0.61262,-0.60656 1.62465,-1.3501 2.24895,-1.65233 0.62431,-0.30222 1.13511,-0.7231 1.13511,-0.93529 0,-0.21218 -0.54094,-4.99383 -1.20209,-10.62587 -0.66114,-5.63205 -1.16716,-10.71544 -1.12448,-11.29644 l 0.0776,-1.05636 0.70609,-0.33683 0.7061,-0.33683 0.66841,0.30455 c 0.94243,0.4294 0.86949,0.0449 2.2911,12.07651 1.46436,12.39342 1.20916,11.31674 2.73183,11.52545 l 1.16486,0.15966 1.14201,-1.08637 c 1.29708,-1.23388 3.96968,-2.58051 5.53927,-2.79103 l 1.05762,-0.14186 v -8.54492 -8.54491 l 0.69714,-0.54837 c 0.90322,-0.71048 1.30066,-0.69129 2.09301,0.10106 l 0.64943,0.64943 v 8.5623 8.5623 l 1.47738,0.61233 c 0.84613,0.3507 2.14782,1.23306 3.04652,2.06509 l 1.56914,1.45276 0.908353,1.87787 c 0.5477,1.13229 0.96321,1.72361 1.04653,1.48933 0.076,-0.21371 1.10007,-4.25808 2.275725,-8.98751 2.75952,-11.10106 2.59017,-10.49476 3.06371,-10.9683 0.87666,-0.87666 2.75223,-0.19067 2.75223,1.00663 0,0.24624 -1.07156,4.72899 -2.38125,9.96167 -1.30968,5.23268 -2.38125,9.69504 -2.38125,9.91635 v 0.4024 h 1.01733 1.01733 l 0.43788,0.48385 0.43788,0.48386 v 2.16198 2.16198 h 3.90988 3.90988 l 0.58804,0.41187 0.58803,0.41188 v 5.01208 5.012081 h 1.32292 1.32292 l 0.56416,0.56416 0.56416,0.56416 -0.15798,1.69175 c -0.17056,1.8265 -0.86475,3.65612 -1.90432,5.01906 -0.35944,0.47125 -0.65352,0.92429 -0.65352,1.00676 0,0.0825 1.53462,0.14994 3.41027,0.14994 h 3.41027 l 0.59155,0.47901 0.59155,0.47901 v 0.76178 0.76177 l -0.59155,0.47901 -0.59155,0.47901 H 65.647492 10.143618 Z m 23.1648256,-3.20894 c -0.08442,-0.1366 -0.77606,-0.61075 -1.536969,-1.05366 -0.76091,-0.44292 -1.562066,-0.92209 -1.780347,-1.06484 l -0.396875,-0.25954 -0.132292,-19.522741 -0.132291,-19.52273 -0.992188,-0.0821 -0.992187,-0.0821 v 19.21565 19.215661 l -0.254572,0.47567 c -0.140014,0.26162 -1.092514,0.97348 -2.116666,1.58192 -1.024152,0.60844 -1.862095,1.16047 -1.862095,1.22673 0,0.0663 2.328745,0.12047 5.174989,0.12047 3.157321,0 5.115143,-0.0968 5.021493,-0.24836 z m 76.799447,-0.56118 c 1.97724,-0.98803 3.75615,-3.11893 3.75615,-4.49935 v -0.24736 H 81.919362 50.566244 v 0.47737 c 0,1.38573 2.39806,3.93293 4.389628,4.66263 l 1.03433,0.37897 25.95305,0.0186 25.953058,0.0186 z M 71.997492,101.20719 v -2.321081 l -0.93539,-0.50374 c -1.06142,-0.57162 -2.89579,-2.46477 -3.34631,-3.45354 l -0.30116,-0.66097 h -3.10422 -3.10422 l -0.1606,0.41851 c -0.21902,0.57076 -0.20468,8.445051 0.0158,8.665511 0.097,0.097 2.59732,0.17639 5.55625,0.17639 h 5.37986 z m -8.45107,-0.30915 c -0.65393,-0.65393 -0.69057,-1.277191 -0.12275,-2.087871 l 0.42201,-0.60251 0.95874,0.0806 0.95873,0.0806 0.40519,0.7276 0.40519,0.7276 -0.40513,0.727611 -0.40513,0.7276 -0.83604,0.0817 -0.83604,0.0817 z m 37.500688,0.712 -0.0777,-1.918231 h -12.700008 -12.7 l -0.0777,1.918231 -0.0777,1.91823 h 12.85547 12.855478 z m 9.05038,-1.785941 v -3.70416 h -2.91041 -2.91042 v 3.70416 3.704171 h 2.91042 2.91041 z m -32.988048,-3.72324 c 2.32204,-0.6448 3.88388,-2.85604 3.88388,-5.49877 v -1.5661 l -0.8599,-1.27159 -0.85989,-1.27159 -1.19063,-0.63341 -1.19062,-0.63341 -1.68523,0.12738 -1.68522,0.12737 -1.07259,0.75554 c -0.58992,0.41554 -1.34962,1.28028 -1.68821,1.92163 l -0.61563,1.16609 v 1.42414 1.42413 l 0.51358,1.0067 c 0.6294,1.23372 2.15628,2.61359 3.1293,2.828 0.39751,0.0876 0.84181,0.19897 0.98733,0.24752 0.52587,0.17542 1.34242,0.12167 2.33383,-0.15363 z m -2.83786,-6.11074 c -0.2321,-0.33138 -0.42201,-0.78765 -0.42201,-1.01393 0,-0.22628 0.18991,-0.68256 0.42201,-1.01394 l 0.42202,-0.60251 0.95873,0.0806 0.95874,0.0806 0.40519,0.7276 0.40518,0.72761 -0.40518,0.7276 -0.40519,0.72761 -0.95874,0.0806 -0.95873,0.0806 z m 26.697788,3.48399 v -2.77813 l -2.844275,-0.0751 -2.844273,-0.0751 v 2.92832 2.92831 l 2.844273,-0.0751 2.844275,-0.0751 z m -10.318758,1.9574 1.05833,-0.5521 0.14072,-3.15005 c 0.15924,-3.56489 0.29632,-4.01907 1.27753,-4.23276 0.38413,-0.0837 0.84592,-0.19745 1.02619,-0.25286 l 0.32777,-0.10076 -0.2513,-0.66097 c -1.84373,-4.84936 -8.73612,-6.45476 -12.03971,-2.80433 l -0.47466,0.52449 0.65908,0.86566 c 0.36249,0.47611 0.9332,1.40143 1.26824,2.05628 l 0.60917,1.19062 0.11863,1.85208 0.11862,1.85209 -0.53776,1.58502 c -0.61447,1.81115 -0.66211,1.65634 0.66019,2.14512 l 1.01188,0.37403 1.98437,-0.0697 1.98438,-0.0697 z m -3.68916,-5.45586 c -1.2389,-1.76877 0.98934,-3.56699 2.52146,-2.03487 l 0.5521,0.5521 -0.1697,0.70467 c -0.21412,0.8891 -0.83002,1.36614 -1.76381,1.36614 h -0.72818 z M 31.906443,66.966659 c 4.166241,-1.06128 7.674531,-4.55221 8.973001,-8.9286 l 0.42638,-1.437079 V 44.74275 32.88452 H 27.679785 14.053745 v 11.49636 11.49635 l 0.291494,1.402079 c 0.46364,2.23011 1.801169,4.68209 3.459661,6.34231 l 1.502196,1.50376 2.012386,0.96791 2.012385,0.96792 1.777084,0.21513 c 1.993703,0.24135 5.20944,0.0949 6.797492,-0.30968 z m -2.725329,-7.44242 c -0.703736,-0.74909 -0.732696,-1.51587 -0.08735,-2.31284 L 29.5817,56.60883 h 0.84758 c 0.961789,0 1.506465,0.443789 1.745968,1.422559 l 0.164658,0.67291 -0.563326,0.71615 -0.563326,0.71616 h -0.728426 c -0.419317,0 -0.972549,-0.25986 -1.303714,-0.61237 z M 20.75177,54.57851 c -1.167386,-0.47035 -1.495064,-2.02611 -0.612609,-2.90857 1.361617,-1.36162 3.670132,0.21132 2.874139,1.95833 -0.223252,0.48999 -1.319269,1.29689 -1.629818,1.1999 -0.02953,-0.009 -0.313803,-0.12157 -0.631712,-0.24966 z m 10.118018,-9.58202 c -1.259029,-1.79752 1.160079,-3.94754 2.622896,-2.33115 1.049172,1.15932 0.240743,2.91918 -1.340986,2.91918 H 31.281666 Z M 41.305824,22.96026 v -6.4847 l -13.559893,0.0686 -13.559895,0.0685 -0.07085,6.41615 -0.07085,6.41613 h 13.630745 13.630743 z m 35.548938,22.38521 c -2.09478,-0.53315 -3.82641,-2.24664 -4.49244,-4.44537 l -0.38431,-1.2687 0.17374,-1.05833 c 1.26328,-7.69544 12.30223,-6.86257 12.27387,0.92604 -0.0135,3.72053 -3.9574,6.76604 -7.57086,5.84636 z m 2.6346,-3.49608 c 0.99736,-0.51005 1.49185,-1.35807 1.49808,-2.56907 l 0.006,-1.14483 -0.7734,-0.7734 -0.7734,-0.7734 h -1.17489 -1.1749 l -0.6882,0.6882 c -2.27779,2.27779 0.24535,6.02258 3.08083,4.5725 z m 16.46792,-15.10915 c -0.22653,-0.32342 -0.41188,-0.77317 -0.41188,-0.99945 0,-0.22629 0.18535,-0.67605 0.41188,-0.99947 l 0.411883,-0.58803 h 0.77874 c 1.48763,0 2.25789,1.39814 1.42521,2.58695 l -0.41188,0.58804 h -0.89604 -0.89603 z M 70.847872,17.8486 c -0.24084,-0.26612 -0.43788,-0.80156 -0.43788,-1.18986 v -0.70601 l 0.91745,-1.01552 0.91746,-1.01551 -0.91746,-0.88924 -0.91745,-0.88923 v -0.85914 -0.85913 l 0.58803,-0.41188 c 0.88532,-0.6201 1.42174,-0.50707 2.5862,0.54495 l 1.0591,0.95683 1.0591,-0.95683 c 2.29144,-2.07018 4.56827,-0.0919 2.51277,2.18333 -0.50932,0.56376 -0.92604,1.11522 -0.92604,1.22547 0,0.11024 0.41672,0.6617 0.92604,1.22546 1.3754,1.52241 0.93815,3.14016 -0.84874,3.14016 h -0.71644 l -1.00335,-0.97974 -1.00334,-0.97973 -1.00334,0.97973 -1.00335,0.97974 h -0.67544 c -0.37149,0 -0.87249,-0.21773 -1.11332,-0.48385 z" id="path2"/></g></svg>
