<?xml version="1.0" encoding="utf-8" ?><svg xmlns="http://www.w3.org/2000/svg" xmlns:xlink="http://www.w3.org/1999/xlink" width="1470" height="1024" viewBox="0 0 1470 1024"><path transform="scale(1.00017 1)" d="M451.523 203.955C452.445 204.608 453.044 216.146 453.262 218.319C458.268 268.155 513.855 288.73 551.885 257.894C567.873 244.931 570.874 224.164 572.045 203.972L599.673 217.433C603.816 219.447 611.429 222.883 615.018 225.326C601.219 258.318 597.401 293.123 597.488 328.526C596.68 329.349 595.881 330.181 595.091 331.022C585.356 341.405 576.626 356.429 570.807 369.529C563.917 384.809 560.681 401.484 561.356 418.231C562.932 461.727 587.356 492.406 610.43 526.927C627.302 552.171 642.656 576.278 655.338 603.991C681.506 661.178 688.699 717.182 690.773 779.449C673.284 788.626 643.097 799.266 624.375 804.825C548.416 826.388 467.85 825.595 392.33 802.539C368.631 795.183 355.372 788.595 333.481 779.493C335.156 715.66 343.154 657.258 370.781 598.919C380.282 578.856 392.263 559.164 404.425 540.704C428.815 503.685 460.792 466.045 462.908 419.614C464.41 386.67 448.372 352.591 426.735 328.383C429.195 296.552 419.666 254.574 408.789 224.833C423.127 218.007 437.22 210.704 451.523 203.955ZM437.579 230.768L431.176 233.745C439.637 266.489 444.214 288.147 444.08 321.568C468.344 352.997 484.378 388.877 479.384 429.693C472.826 483.28 433.915 524.514 406.676 569.064C376.238 618.847 359.114 671.542 353.706 729.666C352.526 741.614 351.179 756.507 351.115 768.609C363.235 773.552 385.082 782.643 397.338 785.844C418.239 793.239 446.714 797.965 468.532 800.483C525.151 807.016 582.146 801.228 636.147 782.948C648.496 778.767 660.779 773.515 672.874 768.444C672.001 756.838 671.681 745.566 670.684 733.815C667.128 691.896 657.218 650.404 640.105 611.914C628.539 585.903 612.267 560.398 596.269 536.891C567.295 494.318 539.289 457.145 544.753 402.211C547.815 371.43 560.823 345.953 579.939 322.023C580.785 288.506 583.831 266.068 593.075 233.981C590.918 232.753 588.596 231.366 586.395 230.262C575.643 274.924 535.769 297.711 491.532 286.625C472.775 282.034 456.634 270.131 446.704 253.569C442.708 246.821 439.613 238.365 437.579 230.768Z"/><path transform="scale(1.00017 1)" d="M812.838 477.93C812.108 481.553 811.415 490.749 810.977 494.924L807.33 531.066C803.584 572.381 800.131 613.722 796.971 655.085C796.341 664.375 794.012 714.212 791.933 719.172C787.748 722.025 775.314 721.153 770.099 721.132L740.735 720.938C735.313 720.914 729.321 721.559 724.052 720.973C715.755 720.051 718.809 708.153 719.134 702.451L720.669 673.587C724.723 577.526 732.996 481.69 745.462 386.355C747.78 368.347 750.387 350.378 753.282 332.454C755.757 317.391 757.553 296.09 770.102 285.631C775.255 281.337 786.952 277.139 793.519 274.385L843.787 253.165C850.94 250.159 861.491 246.706 867.937 242.783C871.497 240.617 874.483 237.256 877.459 234.365C883.392 228.601 899.105 212.692 905.218 209.291C924.027 198.826 983.554 200.118 1004.37 206.207C1007.65 207.166 1010.71 208.508 1013.5 210.516C1017.25 213.218 1020.43 217.028 1023.78 220.22C1028.91 225.116 1034.22 229.836 1039.35 234.74C1041.92 237.193 1044.45 240.098 1047.38 242.08C1052.95 245.836 1060.88 248.225 1067.13 250.835L1116.26 271.488C1125.99 275.597 1137.7 279.104 1146.15 285.406C1149.71 288.063 1151.98 291.244 1154.05 295.105C1161.15 308.359 1163.68 335.443 1166.06 350.731C1182.83 458.321 1190.99 567.553 1195.95 676.268C1196.26 683.022 1198.73 713.334 1197.42 717.071C1196.88 718.624 1195.76 719.784 1194.25 720.423C1193.04 720.935 1191.69 721.154 1190.39 721.214C1181.5 721.623 1172.24 721.043 1163.3 721.065C1152.3 721.093 1141.01 721.688 1130.05 721.201C1128.89 721.15 1127.47 721.045 1126.43 720.504C1124.79 719.652 1123.87 717.592 1123.58 715.892C1122.56 709.727 1122.64 703.124 1122.27 696.88C1121.67 687.576 1120.96 678.279 1120.15 668.99C1116.7 621.625 1112.79 574.295 1108.44 527.005L1105.33 494.992C1104.82 489.422 1104.54 482.264 1103.59 476.957C1103.51 475.502 1103.76 474.349 1102.97 473.613C1102.03 475.686 1102.03 476.394 1101.67 478.693C1098.12 503.909 1091.37 532.891 1092.84 558.405C1093.99 578.229 1097.29 600.903 1099.92 620.694L1116.1 737.204C1118.65 755.623 1121.92 774.314 1123.58 792.817C1123.74 794.534 1124 796.539 1123.01 798.042C1118.58 804.794 1077.23 814.549 1067.48 816.503C1049.84 820.039 1029.53 822.759 1012.55 815.357C1007.46 813.139 1002.91 810.047 998.305 806.984C978.902 807.889 959.518 809.083 940.1 807.925C932.944 807.499 925.772 807.162 918.608 806.888C892.679 824.302 873.178 821.661 843.72 815.049C827.517 811.412 810.202 806.929 795.277 799.684C792.07 797.745 792.772 795.156 793.115 792.198C802.523 711.143 819.173 629.045 823.785 547.705C824.812 529.579 817.991 495.322 814.666 476.949L813.571 471.34C813.362 472.95 812.802 476.471 812.838 477.93ZM1052.47 303.962C1056.89 308.296 1076.42 325.314 1075.18 328.979C1072.07 338.222 1061.74 358.312 1057.37 367.241C1042.4 397.279 1026.53 426.859 1009.78 455.94C1002.81 468.278 995.724 480.549 988.523 492.753C979.706 507.613 957.038 543.26 954.909 558.214C949.356 597.209 955.472 646.913 962.919 685.555C969.812 721.33 981.139 793.479 1021.47 805.556C1027.14 807.15 1033 807.923 1038.89 807.85C1057.62 807.711 1094.38 798.572 1111.47 791.162C1109.52 782.368 1107.85 766.753 1106.54 757.129L1097.96 694.968C1094.11 668.36 1090.44 641.726 1086.95 615.068C1084.48 596.434 1081.97 578.409 1081.24 559.583C1080 527.8 1086.46 496.156 1091.73 464.747C1101.11 408.815 1112.62 345.227 1131.2 291.4C1114.71 284.073 1098.14 276.929 1081.49 269.971C1075.56 267.485 1066.3 263.24 1060.62 261.231C1077.99 291.092 1075.36 285.539 1052.47 303.962ZM785.624 291.138C794.373 319.911 802.083 348.99 808.739 378.317C815.626 409.213 820.982 441.377 826.202 472.645C830.524 498.524 835.743 525.732 835.572 551.923C835.471 567.358 833.026 585.925 831.061 601.308C828.314 623.12 825.323 644.899 822.086 666.644C816.074 708.134 811.186 749.75 804.956 791.331C830.755 799.931 867.482 812.287 894.512 805.712C910.193 800.703 919.668 791.082 927.827 775.019C939.414 752.205 946.975 721.045 951.841 695.83C953.059 689.516 947.168 671.858 947.189 664.625C942.913 630.533 937.449 594.028 942.517 559.804C943.828 550.956 947.159 541.678 950.417 533.466C946.39 524.519 940.799 515.576 935.861 507.038C905.138 453.918 874.08 400.714 848.319 344.955C846.93 341.949 840.965 330.796 841.632 326.766C845.888 320.915 858.907 309.389 864.227 303.893C860.116 300.932 846.171 291.794 844.61 287.361C842.969 282.704 855.644 263.327 854.806 261.559C832.56 271.297 807.203 280.845 785.624 291.138ZM991.72 463.811C1016.54 419.677 1041.3 376.629 1061.57 329.973C1057.2 325.777 1051.64 320.619 1047.75 316.79C1036.69 305.876 1031.3 302.314 1047.04 292.634C1049.42 291.172 1056.43 285.978 1058.72 284.051C1047.99 259.29 1038.57 249.267 1018.38 232.212C1018.63 237.138 1018.65 241.933 1018.52 246.862C1017.28 293.615 1007.31 339.609 997.209 385.064C988.024 425.404 978.226 465.602 967.818 505.644C975.699 491.651 983.667 477.707 991.72 463.811ZM857.856 284.327C860.519 286.194 864.889 289.357 867.223 290.912C883.479 301.739 883.241 304.233 868.683 316.614C865.529 319.296 858.551 326.25 855.209 329.801C861.198 345.274 868.491 359.071 875.784 373.865C891.148 405.031 908.198 434.487 925.152 464.748C933.104 478.575 941.149 493.121 949.375 506.702C942.28 481.948 936.513 457.537 930.386 432.369C915.676 371.938 900.169 310.045 897.839 247.637C897.656 242.735 898.593 236.665 898.168 232.013C877.165 249.167 868.606 259.092 857.856 284.327ZM929.514 795.392C937.654 796.696 949.152 796.481 957.481 796.812C967.043 797.073 977.592 796.457 987.207 795.913C969.444 768.714 967.106 752.749 958.396 723.326C951.981 747.853 944.146 774.55 929.514 795.392ZM1141.86 298.829C1131.61 330.646 1123.12 363.007 1116.45 395.764C1113.98 407.913 1110.36 421.374 1111.24 433.684C1111.99 444.291 1113.32 454.944 1114.45 465.526L1120.71 528.574C1126.23 588.791 1130.94 649.079 1134.84 709.422C1141.27 709.271 1147.7 709.216 1154.13 709.256C1164.11 709.284 1175.95 709.019 1185.79 709.36L1182.1 638.108C1177.06 544.128 1168.01 450.407 1154.96 357.201C1152.98 343.934 1148.8 309.089 1141.86 298.829ZM952.423 213.178C944.769 213.774 918.193 214.009 913.555 219.273C903.506 230.679 914.172 297.864 917.071 314.942C924.431 358.31 934.853 401.319 945.431 444C949.661 461.067 954.846 478.14 958.429 495.334C958.708 493.959 959.015 492.199 959.339 490.867C970.563 443.301 1021.99 254.423 1002.58 218.404C991.34 213.865 965.044 212.71 952.423 213.178ZM774.606 298.788C767.557 312.317 761.777 353.63 759.297 370.936C749.727 440.87 742.605 511.117 737.943 581.548C735.588 612.759 733.744 644.006 732.412 675.277C731.962 685.772 730.961 698.88 730.897 709.199C741.434 709.122 751.971 709.161 762.506 709.316C768.703 709.317 775.11 709.397 781.286 709.276C782.461 699.459 782.94 688.334 783.651 678.354L786.796 637.209C789.413 601.882 792.295 566.575 795.444 531.292C797.325 508.603 799.517 485.942 802.02 463.313C803.17 452.382 805.114 436.833 805.494 426.206C805.631 422.392 801.213 402.034 800.272 397.491C794.406 368.334 787.287 339.442 778.936 310.897C778.228 308.51 776.138 300.163 774.606 298.788Z"/><path transform="scale(1.00017 1)" d="M967.176 565.104C971.98 563.773 976.969 566.506 978.434 571.27C979.169 573.662 978.899 576.25 977.686 578.439C976.473 580.627 974.421 582.228 972.003 582.871C967.107 584.175 962.078 581.278 960.75 576.389C959.422 571.5 962.294 566.456 967.176 565.104Z"/><path fill="#605E5F" fill-opacity="0.011764706" transform="scale(1.00017 1)" d="M813.571 471.34L814.666 476.949C814.462 479.004 813.797 482.612 813.763 484.414C813.538 482.925 813.257 479.099 812.838 477.93C812.802 476.471 813.362 472.95 813.571 471.34Z"/><path fill="#E6E6E5" fill-opacity="0.011764706" transform="scale(1.00017 1)" d="M1101.67 478.693C1102.03 476.394 1102.03 475.686 1102.97 473.613C1103.76 474.349 1103.51 475.502 1103.59 476.957L1103.15 480.148C1102.24 479.473 1102.41 479.574 1101.67 478.693Z"/></svg>